<svg width="26" height="26" viewBox="0 0 26 26" fill="none" xmlns="http://www.w3.org/2000/svg">
<path d="M5.77778 20.2222H15.8889V17.3333H5.77778V20.2222ZM5.77778 14.4444H20.2222V11.5556H5.77778V14.4444ZM5.77778 8.66667H20.2222V5.77778H5.77778V8.66667ZM2.88889 26C2.09444 26 1.41459 25.7174 0.849333 25.1521C0.284074 24.5868 0.000962963 23.9065 0 23.1111V2.88889C0 2.09444 0.283111 1.41459 0.849333 0.849333C1.41556 0.284074 2.09541 0.000962963 2.88889 0H23.1111C23.9056 0 24.5859 0.283111 25.1521 0.849333C25.7183 1.41556 26.001 2.09541 26 2.88889V23.1111C26 23.9056 25.7174 24.5859 25.1521 25.1521C24.5868 25.7183 23.9065 26.001 23.1111 26H2.88889ZM2.88889 23.1111H23.1111V2.88889H2.88889V23.1111Z" fill="#6B6B6B"/>
</svg>
